<?xml version="1.0" standalone="no"?>
<!DOCTYPE svg PUBLIC "-//W3C//DTD SVG 20010904//EN"
 "http://www.w3.org/TR/2001/REC-SVG-20010904/DTD/svg10.dtd">
<svg version="1.0" xmlns="http://www.w3.org/2000/svg"
 width="535.000000pt" height="535.000000pt" viewBox="0 0 535.000000 535.000000"
 preserveAspectRatio="xMidYMid meet">
<metadata>
Created by potrace 1.14, written by Peter Selinger 2001-2017
</metadata>
<g transform="translate(0.000000,535.000000) scale(0.100000,-0.100000)"
fill="#000000" stroke="none">
<path d="M2587 5344 c-1 -1 -42 -5 -92 -8 -91 -7 -145 -13 -200 -21 -16 -3
-37 -5 -45 -6 -8 -1 -33 -6 -55 -11 -42 -11 -80 -18 -105 -20 -8 0 -19 -4 -25
-8 -5 -4 -18 -6 -27 -5 -10 2 -18 -1 -18 -6 0 -4 -6 -6 -14 -3 -8 3 -17 1 -20
-5 -4 -6 -13 -8 -21 -4 -8 3 -15 1 -15 -4 0 -5 -9 -9 -21 -10 -11 -1 -41 -9
-67 -17 -26 -9 -51 -16 -57 -17 -5 -1 -19 -6 -30 -12 -11 -6 -24 -12 -30 -13
-5 -1 -23 -8 -40 -15 -16 -7 -33 -12 -37 -11 -5 1 -8 -3 -8 -9 0 -5 -4 -7 -10
-4 -5 3 -10 2 -10 -4 0 -6 -7 -8 -15 -5 -8 4 -15 1 -15 -5 0 -6 -9 -11 -20
-11 -11 0 -20 -4 -20 -10 0 -5 -3 -10 -7 -9 -16 2 -53 -14 -53 -22 0 -5 -3 -8
-7 -7 -14 4 -123 -53 -123 -64 0 -6 -3 -9 -6 -5 -3 3 -24 -5 -45 -19 -21 -13
-40 -24 -42 -24 -10 0 -142 -93 -155 -108 -10 -12 -12 -13 -7 -2 4 8 -3 5 -14
-8 -11 -13 -22 -23 -26 -22 -7 1 -29 -17 -60 -47 -12 -13 -26 -23 -30 -23 -13
0 -54 -37 -48 -44 3 -3 1 -6 -5 -6 -6 0 -27 -15 -47 -34 -19 -19 -35 -32 -35
-28 0 3 -11 -9 -25 -28 -14 -19 -25 -30 -25 -25 0 5 -16 -9 -35 -31 -19 -21
-35 -43 -35 -47 0 -5 -4 -5 -10 -2 -5 3 -10 2 -10 -2 0 -5 -14 -23 -30 -41
-16 -18 -30 -38 -30 -43 0 -6 -4 -7 -10 -4 -5 3 -10 2 -10 -3 0 -5 -13 -25
-30 -43 -16 -19 -30 -40 -30 -47 0 -7 -4 -10 -10 -7 -5 3 -10 2 -10 -3 0 -5
-19 -33 -42 -63 -24 -29 -36 -50 -28 -45 8 4 6 -1 -5 -11 -29 -27 -68 -84 -68
-99 0 -7 -6 -15 -14 -18 -7 -3 -13 -12 -13 -19 0 -8 -7 -20 -15 -27 -8 -7 -12
-16 -9 -21 3 -5 1 -9 -4 -9 -5 0 -12 -8 -15 -17 -4 -10 -24 -51 -46 -91 -43
-79 -75 -153 -73 -164 1 -5 -2 -8 -8 -8 -6 0 -9 -3 -9 -7 1 -5 -4 -24 -12 -43
-7 -19 -12 -38 -11 -42 1 -5 -3 -8 -10 -8 -6 0 -8 -3 -5 -7 4 -3 2 -12 -4 -20
-6 -7 -8 -13 -4 -13 4 0 2 -7 -5 -15 -7 -8 -9 -15 -5 -15 4 0 3 -6 -2 -12 -10
-12 -26 -61 -28 -83 0 -5 -4 -15 -7 -21 -8 -12 -19 -60 -21 -86 -1 -10 -5 -18
-9 -18 -4 0 -7 -3 -6 -7 1 -5 -2 -26 -7 -48 -5 -22 -9 -47 -10 -55 -1 -8 -4
-28 -8 -45 -4 -16 -10 -41 -12 -55 -5 -25 -7 -36 -22 -155 -8 -68 -8 -497 1
-565 6 -49 12 -88 20 -135 3 -16 8 -48 10 -70 3 -22 19 -92 36 -155 17 -63 32
-122 34 -130 12 -48 40 -121 47 -126 5 -3 7 -9 4 -14 -3 -5 3 -28 15 -52 11
-23 20 -48 20 -55 0 -7 5 -13 10 -13 6 0 10 -7 10 -15 0 -20 68 -164 89 -189
9 -10 15 -20 13 -22 -4 -7 30 -68 42 -76 6 -4 8 -8 3 -8 -8 0 82 -141 98 -152
7 -5 7 -8 0 -8 -7 0 -7 -3 0 -8 6 -4 21 -23 35 -42 45 -65 154 -197 182 -222
11 -10 17 -18 14 -18 -4 0 20 -27 52 -60 33 -33 64 -60 70 -60 6 0 14 -5 18
-12 5 -7 2 -9 -7 -4 -8 4 -6 1 4 -7 10 -8 40 -35 66 -58 72 -66 129 -112 133
-108 3 2 16 -8 30 -23 14 -15 28 -25 31 -21 4 3 7 1 7 -5 0 -6 14 -21 32 -33
18 -14 28 -17 24 -8 -4 7 1 5 11 -6 10 -11 27 -27 38 -35 17 -13 18 -13 11 0
-6 12 -5 12 6 -1 12 -14 46 -36 146 -96 21 -11 40 -19 45 -16 4 2 7 0 7 -5 0
-8 173 -95 185 -92 3 0 18 -6 33 -14 56 -30 201 -83 251 -93 14 -2 29 -7 35
-11 6 -3 16 -7 21 -8 6 -1 46 -11 90 -22 44 -11 96 -23 115 -26 19 -3 46 -8
60 -11 41 -8 104 -17 135 -20 17 -2 62 -7 100 -11 124 -12 465 -7 550 10 11 2
40 7 65 10 49 7 79 12 125 23 17 3 37 8 45 9 8 1 29 5 45 9 17 4 36 8 43 8 6
0 12 3 12 7 0 3 8 6 18 7 18 1 57 10 57 13 0 1 7 3 15 5 37 7 156 49 168 58 6
5 12 6 12 3 0 -4 10 -1 23 6 12 7 24 13 27 13 35 9 60 19 60 24 0 4 6 8 13 8
15 0 147 62 167 79 8 7 18 13 23 13 13 1 72 33 78 43 3 5 9 9 13 8 9 -2 181
106 201 127 8 8 15 12 15 9 0 -6 30 17 62 47 10 9 19 16 21 15 2 -2 48 35 79
65 10 9 21 17 24 17 4 0 35 29 70 64 35 35 64 62 64 60 0 -2 26 24 57 59 31
34 64 67 73 74 8 7 12 13 8 13 -3 0 10 18 30 39 49 51 73 81 67 81 -3 0 4 10
16 23 26 28 84 111 81 115 -2 2 5 10 15 18 10 7 14 14 10 14 -4 0 -3 6 3 13
41 48 49 61 44 68 -3 5 -1 9 4 9 5 0 15 12 23 28 7 15 21 38 31 51 10 13 15
27 12 32 -3 5 -1 9 4 9 4 0 14 16 22 35 8 19 17 35 22 35 4 0 7 3 6 8 -1 4 13
39 31 77 18 39 34 75 36 80 1 6 7 21 13 35 11 26 24 60 27 73 2 4 4 10 5 15 2
4 4 12 4 17 1 6 7 20 14 32 7 13 10 23 6 23 -3 0 -1 7 6 15 7 8 9 15 5 15 -4
0 -2 7 5 15 7 9 10 18 7 22 -4 3 -3 11 3 17 5 7 12 27 15 46 3 18 8 36 10 40
2 4 7 22 10 41 9 46 13 64 15 64 1 0 3 9 5 20 6 40 14 91 25 150 30 172 32
578 4 730 -4 17 -7 41 -9 55 -6 49 -16 105 -22 125 -4 11 -7 25 -8 30 -3 27
-17 93 -25 115 -5 14 -12 36 -14 50 -3 14 -10 41 -17 60 -18 52 -22 64 -24 70
-6 27 -40 118 -51 139 -8 14 -14 32 -14 39 0 6 -5 12 -10 12 -6 0 -9 3 -8 8 4
13 -26 82 -35 82 -4 0 -6 4 -2 9 3 5 -1 15 -8 23 -7 7 -14 16 -15 20 -8 27
-17 45 -30 61 -8 9 -12 17 -8 17 4 0 -1 12 -12 28 -11 15 -22 36 -26 47 -3 11
-18 33 -33 50 -16 16 -27 31 -25 32 5 6 -81 133 -90 133 -5 0 -6 5 -3 10 3 6
-1 13 -9 16 -9 3 -16 10 -16 15 0 10 -22 39 -57 76 -13 13 -23 27 -23 31 0 4
-14 20 -30 36 -17 16 -30 33 -30 38 0 4 -7 8 -16 8 -8 0 -13 4 -10 8 6 10
-169 184 -177 175 -4 -3 -7 1 -7 10 0 9 -5 19 -12 23 -7 5 -8 3 -3 -5 4 -7
-17 10 -46 38 -29 28 -56 51 -60 51 -3 0 -19 12 -36 28 -16 15 -40 34 -53 42
-12 8 -35 24 -49 35 -38 29 -64 45 -83 51 -10 4 -18 10 -18 15 0 5 -5 9 -11 9
-6 0 -17 7 -26 15 -8 8 -18 13 -23 10 -4 -3 -11 2 -14 11 -3 8 -10 12 -16 9
-5 -3 -10 -1 -10 5 0 6 -4 9 -9 6 -5 -3 -12 1 -15 10 -3 9 -13 14 -20 11 -8
-3 -16 -2 -18 2 -2 5 -38 27 -80 48 -43 22 -74 35 -71 29 4 -6 -2 -4 -13 5
-15 12 -121 60 -144 65 -3 0 -18 6 -35 13 -16 7 -34 14 -40 15 -5 1 -14 4 -20
8 -12 7 -179 55 -215 62 -14 3 -35 7 -47 10 -62 16 -110 25 -198 40 -106 18
-476 40 -488 30z m353 -188 c19 -3 55 -8 80 -11 25 -3 56 -7 70 -10 14 -3 40
-7 59 -10 19 -3 37 -7 40 -9 3 -2 23 -7 43 -10 39 -6 171 -43 253 -71 218 -75
452 -195 645 -333 36 -26 69 -46 73 -44 5 1 6 -2 2 -8 -3 -5 -3 -10 2 -10 20
0 221 -183 314 -287 26 -29 50 -49 54 -45 5 4 5 2 1 -5 -3 -6 3 -18 14 -26 11
-7 17 -16 14 -19 -3 -3 7 -15 22 -27 15 -11 24 -21 20 -21 -6 0 0 -9 30 -43
21 -24 154 -227 154 -235 0 -4 9 -18 20 -30 12 -12 18 -22 15 -22 -3 0 8 -24
25 -54 41 -75 107 -226 137 -316 14 -41 30 -86 36 -100 5 -14 11 -32 12 -40 1
-8 12 -51 23 -95 21 -82 48 -227 60 -325 15 -122 7 -551 -13 -640 -3 -14 -8
-45 -11 -70 -3 -25 -12 -69 -20 -98 -7 -30 -13 -57 -12 -60 1 -4 -1 -14 -5
-22 -3 -8 -16 -51 -28 -95 -13 -44 -33 -106 -46 -139 -12 -32 -20 -62 -18 -66
3 -5 2 -10 -3 -12 -4 -1 -24 -41 -45 -88 -44 -99 -146 -284 -194 -352 -18 -26
-33 -50 -33 -53 0 -6 -11 -20 -37 -50 -7 -7 -13 -16 -13 -19 0 -3 -8 -14 -17
-25 -10 -10 -27 -30 -38 -45 -56 -73 -191 -215 -277 -293 -25 -23 -43 -45 -40
-48 4 -4 2 -5 -4 -3 -6 2 -29 -13 -52 -32 -71 -59 -83 -68 -202 -147 -216
-143 -519 -280 -722 -329 -10 -2 -26 -6 -35 -8 -75 -20 -204 -44 -268 -52 -27
-3 -77 -10 -110 -14 -64 -9 -457 -6 -515 4 -19 3 -55 9 -80 12 -63 8 -80 11
-120 20 -19 4 -44 8 -55 9 -11 1 -27 5 -35 8 -8 3 -44 13 -79 22 -158 39 -520
190 -613 257 -16 11 -28 16 -28 11 0 -4 -4 -3 -8 3 -4 6 -36 30 -72 54 -36 24
-81 56 -101 71 -20 16 -39 26 -43 22 -3 -3 -6 -2 -6 3 0 6 -32 36 -70 68 -84
69 -158 134 -179 159 -9 10 -40 44 -70 75 -29 31 -60 67 -68 79 -9 13 -19 20
-24 17 -5 -3 -8 -2 -7 3 4 15 -23 54 -34 47 -6 -4 -8 -3 -5 3 4 5 -1 19 -11
29 -30 34 -137 196 -189 289 -101 177 -192 405 -244 605 -28 109 -55 270 -66
395 -12 135 -6 449 11 545 3 14 7 41 10 60 9 58 19 109 31 165 9 43 45 172 59
214 9 24 14 47 11 51 -3 5 -2 10 3 12 4 1 20 37 36 78 58 152 202 419 282 526
13 17 23 33 21 35 -1 2 0 3 2 2 2 -1 17 17 34 40 17 23 34 44 39 45 4 2 8 8 8
13 0 5 21 32 48 60 26 28 45 56 44 63 -2 6 -1 8 3 5 7 -8 161 142 157 153 -1
5 2 7 7 5 5 -1 24 12 42 28 19 17 54 46 79 65 25 19 51 41 59 48 7 7 70 50
140 96 174 114 379 214 571 276 41 14 77 28 78 33 2 4 7 5 11 3 4 -3 41 4 82
15 41 10 85 21 99 24 14 3 36 7 50 10 65 13 155 26 231 31 46 4 86 8 88 10 5
4 371 -4 411 -10z"/>
<path d="M2895 4864 c-151 -20 -180 -25 -185 -32 -3 -4 -18 -8 -35 -10 -16 -2
-32 -8 -33 -13 -2 -5 -8 -7 -12 -4 -10 6 -135 -42 -219 -84 -87 -44 -231 -143
-304 -210 l-66 -60 28 -38 c16 -21 38 -48 51 -61 l22 -23 46 43 c26 23 52 46
57 50 6 4 26 20 45 36 19 16 52 39 73 51 21 13 44 30 52 38 8 8 15 12 15 9 0
-4 41 14 90 39 50 25 90 42 90 39 0 -4 6 -2 13 3 17 14 169 54 257 69 83 14
344 7 410 -11 8 -2 29 -7 47 -10 17 -3 69 -18 115 -34 331 -113 588 -340 750
-660 32 -62 62 -130 68 -151 10 -38 83 -125 104 -125 6 0 11 -5 11 -11 0 -7
24 -36 54 -65 l54 -53 -6 39 c-10 65 -17 97 -34 155 -9 30 -18 62 -19 71 -6
31 -98 240 -114 257 -8 10 -16 23 -18 30 -2 13 -52 93 -63 102 -3 3 -8 10 -10
16 -14 38 -221 259 -282 301 -23 15 -49 35 -58 44 -21 21 -132 89 -143 88 -5
0 -12 4 -15 9 -13 20 -214 104 -306 127 -16 5 -34 9 -40 11 -134 36 -338 48
-490 28z"/>
<path d="M1507 4454 c-1 -2 -21 -5 -44 -8 -86 -10 -177 -80 -217 -165 -17 -37
-21 -71 -24 -178 l-4 -133 -41 -1 c-23 0 -89 -1 -147 -2 l-105 -2 -2 -210 c0
-115 -2 -225 -2 -242 l-1 -33 -68 0 c-87 0 -128 -12 -169 -52 -43 -42 -57 -85
-58 -190 0 -48 -3 -89 -6 -92 -3 -3 -52 42 -109 99 -58 58 -107 105 -111 105
-3 0 -14 -29 -23 -64 -14 -50 -15 -69 -6 -85 6 -12 15 -19 21 -16 5 4 8 1 7
-7 -2 -7 3 -12 10 -10 6 1 11 -1 10 -5 -4 -10 85 -99 95 -95 4 1 6 -4 5 -10
-2 -7 3 -12 10 -10 6 1 11 -4 10 -10 -2 -7 3 -12 10 -10 6 1 11 -4 10 -10 -2
-7 3 -12 10 -10 6 1 11 -2 10 -6 -2 -4 8 -19 22 -33 l26 -24 -1 -735 -2 -735
26 -45 c21 -39 111 -171 130 -192 3 -4 6 459 6 1028 0 569 3 1040 6 1046 5 7
56 11 148 11 l141 0 0 244 0 243 148 0 149 0 0 193 c0 186 1 195 24 230 37 56
61 62 256 61 157 0 175 -2 200 -20 56 -41 63 -71 63 -276 l0 -187 148 -3 147
-3 2 -225 c1 -124 2 -233 2 -242 1 -15 15 -16 136 -14 l135 2 12 -36 c9 -26
12 -390 12 -1487 l0 -1453 78 0 78 0 -1 1472 c0 1361 -2 1477 -18 1523 -18 55
-53 100 -91 120 -14 7 -59 13 -100 14 -41 1 -77 4 -79 7 -3 3 -6 112 -6 242
l0 237 -148 0 -147 0 -1 25 c0 14 -1 68 -1 120 -1 52 -5 109 -11 125 -16 52
-38 95 -47 95 -6 0 -10 6 -10 13 0 12 -53 58 -65 57 -3 0 -13 6 -21 14 -27 28
-97 39 -257 41 -86 1 -158 0 -160 -1z"/>
<path d="M3286 3701 l-449 -449 -1 -126 c-1 -69 1 -126 5 -126 4 0 208 201
453 447 l446 446 630 -629 c526 -525 635 -629 658 -629 l27 0 1 102 1 101
-656 656 c-361 361 -659 656 -661 656 -3 0 -207 -202 -454 -449z"/>
<path d="M1633 3505 c-6 -7 -9 -17 -5 -21 4 -5 3 -6 -2 -2 -10 9 -103 -72 -98
-85 1 -5 -1 -6 -5 -4 -5 3 -44 -27 -87 -67 l-78 -71 -2 -95 -1 -95 -30 -1
c-69 -3 -65 1 -65 -68 l0 -64 388 2 387 1 1 63 c2 67 5 64 -61 66 l-30 1 -3
95 -3 95 -42 39 c-23 21 -71 64 -106 95 -35 31 -76 67 -90 81 -47 45 -55 49
-68 35z m34 -182 c11 -10 48 -42 82 -72 l62 -54 -3 -66 -3 -66 -157 0 -158 0
0 65 0 65 77 72 c43 40 78 73 79 73 1 0 10 -8 21 -17z"/>
<path d="M3615 3268 c-55 -44 -99 -85 -97 -89 1 -5 -1 -8 -5 -8 -21 3 -33 -3
-33 -17 0 -8 -4 -13 -9 -9 -5 3 -12 1 -15 -4 -4 -5 -50 -44 -104 -87 -53 -43
-104 -85 -113 -93 -8 -9 -28 -25 -43 -36 -15 -11 -36 -27 -47 -37 -43 -36
-103 -84 -130 -104 -16 -11 -26 -24 -22 -27 3 -4 1 -7 -6 -7 -13 0 -89 -58
-131 -100 -24 -24 -25 -31 -24 -132 0 -59 3 -110 5 -112 3 -3 24 12 47 33 23
21 42 36 42 32 0 -3 4 -1 8 4 4 6 43 39 87 74 44 36 79 69 77 75 -2 6 0 8 4 4
6 -6 78 44 104 72 3 3 39 32 80 65 41 32 82 65 90 72 8 7 49 40 90 74 41 33
81 68 88 77 6 9 12 12 12 8 0 -4 6 -1 14 6 13 13 84 71 115 95 23 18 32 16 68
-15 39 -33 43 -37 173 -142 135 -109 140 -113 154 -125 6 -5 34 -28 61 -50 28
-21 52 -42 55 -45 3 -3 25 -21 50 -40 25 -19 47 -37 50 -40 27 -28 99 -78 105
-72 5 4 5 2 2 -4 -3 -6 3 -17 15 -25 11 -8 26 -18 32 -24 52 -46 126 -106 126
-102 0 3 13 -7 28 -21 15 -15 56 -49 91 -77 34 -27 68 -55 74 -60 7 -6 32 -26
57 -45 25 -19 47 -37 50 -40 44 -48 106 -75 107 -47 1 6 8 46 17 87 15 66 15
112 0 98 -3 -3 -28 16 -56 43 -29 27 -58 49 -67 49 -8 0 -11 3 -8 7 4 3 -10
18 -31 32 -20 14 -51 38 -69 54 -17 16 -35 29 -40 30 -4 0 -16 11 -26 24 -10
13 -22 23 -26 23 -5 0 -26 16 -47 36 -22 20 -64 55 -94 78 -30 22 -57 43 -60
46 -5 5 -72 60 -165 135 -21 17 -47 38 -59 49 -11 10 -37 30 -56 45 -19 14
-37 28 -40 31 -20 20 -120 100 -120 96 0 -3 -10 5 -23 17 -12 12 -42 38 -66
57 -24 19 -48 40 -55 45 -34 32 -179 145 -184 145 -4 -1 -52 -37 -107 -82z"/>
<path d="M299 2798 c0 -13 -1 -42 -2 -65 -2 -34 1 -43 14 -43 9 0 19 -6 21
-12 2 -7 3 -105 2 -218 -1 -113 3 -231 9 -262 l11 -58 55 0 56 0 0 272 c0 250
1 272 18 276 14 4 17 16 17 68 l0 64 -100 0 c-97 0 -100 -1 -101 -22z"/>
<path d="M934 2623 c0 -65 6 -76 46 -68 13 3 20 -2 21 -13 0 -9 1 -192 2 -407
l2 -390 226 0 227 -1 0 381 c1 209 1 392 1 406 1 23 5 26 31 24 17 -1 31 0 31
4 5 20 4 121 -1 122 -3 1 -135 3 -295 3 l-290 2 -1 -63z m391 -406 c0 -224 -3
-337 -10 -338 -5 0 -48 -1 -95 -2 l-85 -2 0 333 c0 244 3 335 12 340 6 4 49 7
95 7 l83 0 0 -338z"/>
<path d="M1750 2618 l0 -68 32 2 33 3 0 -397 c0 -218 4 -400 8 -405 5 -4 107
-8 228 -8 l219 -1 0 403 c0 261 4 403 10 404 6 1 20 2 33 3 20 1 22 6 22 66
l0 65 -292 1 -293 0 0 -68z m383 -67 c4 -1 7 -152 7 -336 0 -184 -3 -335 -7
-336 -13 -1 -136 -1 -160 0 l-23 1 0 334 c0 235 3 335 11 338 9 3 147 2 172
-1z"/>
<path d="M3675 2537 c-16 -12 -32 -24 -35 -27 -3 -3 -10 -6 -17 -7 -24 -5
-102 -61 -95 -68 4 -5 2 -5 -4 -2 -7 4 -23 -2 -37 -13 -14 -11 -27 -20 -30
-20 -11 0 -146 -88 -142 -92 3 -3 -1 -5 -7 -5 -16 0 -182 -103 -186 -115 -2
-4 -7 -6 -12 -3 -4 2 -19 -5 -32 -18 -14 -12 -30 -23 -36 -24 -13 -3 -172
-102 -191 -119 -18 -17 -23 -214 -5 -214 6 0 26 10 45 23 19 12 62 40 97 61
34 20 69 44 77 52 8 8 16 13 19 12 2 -2 23 9 46 25 23 15 46 27 51 27 5 0 9 5
9 10 0 6 4 10 10 10 12 0 173 101 182 115 4 5 8 6 8 1 0 -5 8 -2 18 6 9 8 71
48 137 88 66 40 129 79 140 86 18 12 26 10 58 -12 20 -13 37 -22 37 -19 0 3
10 -3 22 -15 12 -11 27 -20 34 -20 7 0 14 -4 16 -8 4 -10 105 -72 117 -72 5 0
11 -3 13 -8 4 -10 230 -150 242 -150 5 0 12 -4 15 -9 9 -12 171 -113 182 -113
5 0 9 -4 9 -10 0 -5 5 -10 10 -10 6 0 48 -25 95 -55 47 -30 85 -52 85 -49 0 2
10 -4 22 -16 20 -18 27 -21 44 -19 4 0 10 -4 14 -10 7 -13 110 -81 122 -81 6
0 40 63 44 80 0 3 8 22 18 43 16 37 16 39 -6 57 -13 11 -26 19 -30 20 -4 0
-33 17 -65 38 -32 21 -74 47 -93 58 -19 10 -37 22 -40 25 -5 5 -337 211 -378
234 -9 6 -32 20 -49 33 -17 12 -34 22 -38 22 -3 0 -26 14 -50 30 -24 17 -48
30 -54 30 -6 0 -11 5 -11 10 0 6 -5 10 -11 10 -6 0 -30 14 -54 30 -24 17 -48
30 -53 30 -6 0 -12 4 -14 8 -1 5 -28 23 -58 40 -78 46 -92 55 -108 70 -7 6
-18 12 -24 12 -6 0 -19 6 -27 14 -14 13 -20 12 -46 -7z"/>
<path d="M3661 1749 c-13 -5 -38 -16 -55 -23 -100 -45 -369 -156 -377 -156 -5
0 -9 -4 -9 -8 0 -5 -6 -9 -14 -9 -8 0 -29 -7 -47 -15 -19 -8 -97 -41 -174 -74
-77 -32 -142 -61 -145 -65 -4 -6 -5 -188 -1 -196 1 -1 127 51 196 82 17 7 71
30 120 50 50 21 99 42 110 48 11 6 25 12 30 13 6 1 96 38 201 83 l191 81 128
-55 c70 -30 132 -52 138 -48 6 4 7 1 2 -7 -6 -10 -4 -12 8 -7 9 3 17 3 19 -1
5 -12 149 -72 158 -67 5 3 10 1 12 -4 3 -8 169 -81 193 -85 6 -1 17 -6 25 -11
8 -5 51 -24 95 -42 l79 -33 24 27 c35 40 82 110 82 121 0 6 -19 17 -42 27 -57
22 -514 213 -553 230 -121 54 -148 64 -156 59 -5 -3 -9 0 -9 5 0 6 -6 11 -12
11 -7 0 -26 7 -43 16 -26 14 -147 65 -149 63 -1 0 -12 -5 -25 -10z"/>
<path d="M935 1432 l1 -67 32 2 c27 1 32 -2 33 -20 0 -12 1 -98 1 -192 0 -191
-5 -177 88 -255 l45 -38 0 252 0 251 95 0 95 0 2 -315 c1 -173 2 -320 2 -327
1 -11 63 -57 110 -82 18 -10 19 -1 19 332 1 438 -1 399 20 396 47 -4 49 -2 48
65 l-1 65 -295 0 -296 0 1 -67z"/>
<path d="M1750 1431 l0 -68 32 1 33 1 0 -395 c0 -217 3 -399 7 -405 4 -6 89
-10 225 -9 l218 0 5 405 5 404 30 0 30 0 2 67 2 66 -294 1 -295 0 0 -68z m388
-404 l2 -337 -95 0 -95 0 0 338 0 338 93 -1 92 0 3 -338z"/>
<path d="M3593 950 c-40 -9 -73 -15 -73 -13 0 2 -8 0 -17 -6 -10 -5 -36 -11
-58 -14 -22 -3 -69 -13 -105 -21 -36 -8 -79 -18 -97 -21 -17 -3 -69 -14 -115
-25 -46 -10 -94 -21 -108 -24 -14 -2 -45 -9 -70 -15 -25 -5 -58 -12 -74 -15
-16 -3 -31 -8 -34 -11 -8 -8 -9 -176 -1 -181 4 -2 46 5 95 16 49 10 105 22
124 25 19 3 53 11 75 17 22 5 50 12 63 14 27 5 47 9 137 29 39 9 86 18 105 21
19 3 39 9 44 12 6 3 24 7 40 9 17 1 58 8 90 16 56 12 68 11 210 -20 83 -19
163 -34 177 -35 16 0 48 16 90 48 35 27 66 52 69 55 3 3 16 13 29 22 l24 16
-24 5 c-266 60 -455 99 -481 102 -14 1 -30 4 -35 7 -4 2 -41 -3 -80 -13z"/>
</g>
</svg>
